# xmcd CD database file
#
# Track frame offsets:
#	150
#	28028
#	51811
#	83073
#	112254
#	126715
#	158758
#	191572
#
# Disc length: 2825 seconds
#
# Revision: 0
# Processed by: cddbd v1.5PL3 Copyright (c) Steve Scherf et al.
# Submitted via: CDex 1.51
#
DISCID=6d0b0708
DTITLE=Nielsen, Christina - A Touch Of Happiness
DYEAR=1999
DGENRE=Jazz
TTITLE0=Everlasting Flowers
TTITLE1=A Touch Of Happiness
TTITLE2=Heartflower
TTITLE3=Look A Like
TTITLE4=Necessity Of Heart
TTITLE5=Forstår du
TTITLE6=Between Thoughts
TTITLE7=La Neige
EXTD=YEAR: 1999
EXTT0=
EXTT1=
EXTT2=
EXTT3=
EXTT4=
EXTT5=
EXTT6=
EXTT7=
PLAYORDER=
